<?xml version="1.0" encoding="utf-8"?>
<svg viewBox="0 3.509 111.696 115.205" xmlns="http://www.w3.org/2000/svg" xmlns:bx="https://boxy-svg.com">
  <g transform="matrix(1, 0, 0, 1, 5.596518, -945.054321)">
    <path style="font-size:medium;font-style:normal;font-variant:normal;font-weight:normal;font-stretch:normal;text-indent:0;text-align:start;text-decoration:none;line-height:normal;letter-spacing:normal;word-spacing:normal;text-transform:none;direction:ltr;block-progression:tb;writing-mode:lr-tb;text-anchor:start;baseline-shift:baseline;opacity:1;color:#000000;fill:#000000;fill-opacity:1;stroke:none;stroke-width:2;marker:none;visibility:visible;display:inline;overflow:visible;enable-background:accumulate;font-family:Sans;-inkscape-font-specification:Sans" d="M 50 5 C 30.645 5 15 20.079 15 38.844 L 15 93 L 10 93 C 9.938 92.994 9.875 92.994 9.813 93 C 9.043 93.072 8.64 93.951 9.087 94.581 C 9.295 94.874 9.643 95.033 10 95 L 90 95 C 90.77 95.011 91.263 94.184 90.887 93.512 C 90.708 93.191 90.367 92.995 90 93 L 85 93 L 85 38.844 C 85 20.079 69.355 5 50 5 Z M 50 7 C 68.317 7 83 21.189 83 38.844 L 83 93 L 17 93 L 17 38.844 C 17 21.189 31.683 7 50 7 Z" transform="translate(0,952.36218)"/>
  </g>
  <g transform="matrix(1, 0, 0, 1, 202.672541, -934.787937)">
    <path style="fill-opacity: 1;" id="path9090" d="M -148.282 -25.025 L -149.882 -29.125 L -134.482 -28.325 L -135.182 -21.725 L -148.282 -25.025 Z M -144.582 -56.725 L -166.082 -46.525 L -162.782 -31.225 L -158.382 -31.225 L -159.082 -42.225 L -158.482 -42.425 L -155.782 -31.225 L -151.282 -31.225 L -151.382 -44.625 L -150.782 -44.825 L -148.482 -31.225 L -143.582 -31.225 L -142.482 -47.325 L -141.782 -47.625 L -140.582 -31.225 L -134.282 -31.225 L -131.982 -53.625 L -144.582 -56.725 Z" transform="matrix(1, 0, 0, 1, -0.362611, 1024.045597)"/>
  </g>
  <g transform="matrix(1.331417, 0, 0, 1.11645, -10.608871, -1055.059204)" style="">
    <path style="font: medium Sans; text-indent: 0px; text-align: start; text-decoration: none; letter-spacing: normal; word-spacing: normal; text-transform: none; direction: ltr; writing-mode: lr-tb; text-anchor: start; baseline-shift: baseline; opacity: 1; color: rgb(0, 0, 0); fill: rgb(0, 0, 0); fill-opacity: 1; stroke: none; stroke-width: 2; marker: none; visibility: visible; display: inline; overflow: visible;" d="M 37.989 1020.505 C 37.219 1020.568 36.816 1021.355 37.263 1021.921 C 37.471 1022.182 37.819 1022.327 38.176 1022.296 L 62.176 1022.296 C 62.946 1022.305 63.439 1021.564 63.063 1020.963 C 62.884 1020.676 62.543 1020.499 62.176 1020.505 L 38.176 1020.505 C 38.114 1020.499 38.051 1020.499 37.989 1020.505 Z"/>
    <path style="font: medium Sans; text-indent: 0px; text-align: start; text-decoration: none; letter-spacing: normal; word-spacing: normal; text-transform: none; direction: ltr; writing-mode: lr-tb; text-anchor: start; baseline-shift: baseline; opacity: 1; color: rgb(0, 0, 0); fill: rgb(0, 0, 0); fill-opacity: 1; stroke: none; stroke-width: 2; marker: none; visibility: visible; display: inline; overflow: visible;" d="M 39.067 1025.135 C 38.374 1025.177 37.994 1025.689 38.383 1026.056 C 38.564 1026.227 38.873 1026.32 39.196 1026.301 L 60.774 1026.301 C 61.466 1026.307 61.926 1025.825 61.602 1025.433 C 61.446 1025.246 61.144 1025.132 60.813 1025.135 L 39.235 1025.135 C 39.18 1025.132 39.123 1025.132 39.067 1025.135 Z" bx:origin="0.615 9.47"/>
    <path style="font: medium Sans; text-indent: 0px; text-align: start; text-decoration: none; letter-spacing: normal; word-spacing: normal; text-transform: none; direction: ltr; writing-mode: lr-tb; text-anchor: start; baseline-shift: baseline; opacity: 1; color: rgb(0, 0, 0); fill: rgb(0, 0, 0); fill-opacity: 1; stroke: none; stroke-width: 2; marker: none; visibility: visible; display: inline; overflow: visible;" d="M 38.969 1015.916 C 38.276 1015.958 37.896 1016.47 38.285 1016.837 C 38.466 1017.008 38.775 1017.101 39.098 1017.082 L 60.676 1017.082 C 61.368 1017.088 61.828 1016.606 61.504 1016.214 C 61.348 1016.027 61.046 1015.913 60.715 1015.916 L 39.137 1015.916 C 39.082 1015.913 39.025 1015.913 38.969 1015.916 Z" bx:origin="0.615 9.47"/>
  </g>
</svg>